# xmcd
#
# Track frame offsets:
#	150
#	14477
#	27312
#	37357
#	51815
#	64122
#	80679
#	92710
#	105287
#	119484
#	133910
#	146184
#
# Disc length: 2119 seconds
#
# Revision: 0
# Processed by: cddbd v1.5.2PL0 Copyright (c) Steve Scherf et al.
# Submitted via: EasyCDDAExtractor 16.0.6.1
#
DISCID=b008450c
DTITLE=Συλλογικός δίσκος - Όταν ανθίζουν πασχαλιές-Στ. Κουγιουμτζής
DYEAR=1971
DGENRE=Έντεχνη λαϊκή
TTITLE0=Καλατζής Γιάννης-χορωδία - Ξενάκι είμαι και θα 'ρθώ [Σταύρος Κουγιουμτ
TTITLE0=ζής]
TTITLE1=Νταλάρας Γιώργος - Αν ήτανε να σ' αρνηθώ [Σταύρος Κουγιουμτζής]
TTITLE2=Καλατζής Γιάννης - Νά 'χα στο στήθος μου γυαλί [Σταύρος Κουγιουμτζής]
TTITLE3=Νταλάρας Γιώργος - Κάποιον άλλον φίλησες [Σταύρος Κουγιουμτζής-Άκος Δα
TTITLE3=σκαλόπουλος]
TTITLE4=Καλατζής Γιάννης - Γεια χαρά καλή [Σταύρος Κουγιουμτζής-Κώστας Βάρναλη
TTITLE4=ς]
TTITLE5=Νταλάρας Γιώργος - Έρημος μέσ' στην ερημιά [Σταύρος Κουγιουμτζής]
TTITLE6=Νταλάρας Γιώργος - Όταν ανθίζουν πασχαλιές [Σταύρος Κουγιουμτζής]
TTITLE7=Καλατζής Γιάννης - Ήθελα νά 'μουνα πουλί [Σταύρος Κουγιουμτζής]
TTITLE8=Νταλάρας Γιώργος - Χάντρα στο κομπολόϊ σου [Σταύρος Κουγιουμτζής-Άκος 
TTITLE8=Δασκαλόπουλος]
TTITLE9=Νταλάρας Γιώργος - Ένας κόμπος η χαρά μου [Σταύρος Κουγιουμτζής]
TTITLE10=Άνευ ερμηνευτού - Γεια χαρά καλή [ορχηστρικό, Σταύρος Κουγιουμτζής]
TTITLE11=Καλατζής Γιάννης - Γιατί εγώ γεννήθηκα φτωχός [Σταύρος Κουγιουμτζής]
EXTD=
EXTT0=
EXTT1=
EXTT2=
EXTT3=
EXTT4=
EXTT5=
EXTT6=
EXTT7=
EXTT8=
EXTT9=
EXTT10=
EXTT11=
PLAYORDER=
